{"title":"Which Peter Will You Choose To Be?","uid":15420818,"size":269697932,"categoryP":"other","categoryS":"other","magnet":"?xt=urn:btih:e94c6997250ee0b85c2913aa778c5c5c2e6a02cf&amp;dn=Which+Peter+Will+You+Choose+To+Be%3F+&amp;tr=udp%3A%2F%2Ftracker.leechers-paradise.org%3A6969&amp;tr=udp%3A%2F%2Fzer0day.ch%3A1337&amp;tr=udp%3A%2F%2Fopen.demonii.com%3A1337&amp;tr=udp%3A%2F%2Ftracker.coppersurfer.tk%3A6969&amp;tr=udp%3A%2F%2Fexodus.desync.com%3A6969","seeders":0,"leechers":0,"uploader":"davidrpeet","files":1,"time":1469637157,"description":"Which Peter Will You Choose To Be? - Jason Wren\r\nWeekly sermons from CrossRoads Church in Decatur, Texas\r\n\r\n\r\n[img]http://d2bmw21rpo6a3.cloudfront.net/torrents/20160724-pix/1.png[/img]\r\n\r\n\r\n\r\n[img]http://d2bmw21rpo6a3.cloudfront.net/torrents/20160724-pix/2.png[/img]\r\n\r\n\r\n\r\n[img]http://d2bmw21rpo6a3.cloudfront.net/torrents/20160724-pix/3.png[/img]\r\n\r\n\r\n\r\n[img]http://d2bmw21rpo6a3.cloudfront.net/torrents/20160724-pix/4.png[/img]\r\n\r\n\r\n\r\n[img]http://d2bmw21rpo6a3.cloudfront.net/torrents/20160724-pix/5.png[/img]\r\n\r\n\r\n\r\n[img]http://d2bmw21rpo6a3.cloudfront.net/torrents/20160724-pix/6.png[/img]\r\n\r\n\r\n\r\n\r\nGeneral\r\nComplete name                            : 20160724 - Which Peter Will You Choose To Be?.mp4\r\nFormat                                   : MPEG-4\r\nFormat profile                           : Base Media / Version 2\r\nCodec ID                                 : mp42\r\nFile size                                : 257 MiB\r\nDuration                                 : 31mn 58s\r\nOverall bit rate mode                    : Variable\r\nOverall bit rate                         : 1 125 Kbps\r\nMovie name                               : Which Peter Will You Choose To Be?\r\nAlbum                                    : CrossRoads Church \r\nAlbum/Performer                          : Darren Embree\r\nPerformer                                : Jason Wren\r\nComposer                                 : http://crossroadspeople.com/\r\nGenre                                    : Speech\r\nRecorded date                            : 2016\r\nEncoded date                             : UTC 2016-07-25 07:30:57\r\nTagged date                              : UTC 2016-07-25 07:30:57\r\nCover                                    : Yes\r\nComment                                  : CrossRoads To Go Video Podcasts\r\n\r\nVideo\r\nID                                       : 1\r\nFormat                                   : AVC\r\nFormat/Info                              : Advanced Video Codec\r\nFormat profile                           :   \r\nFormat settings, CABAC                   : Yes\r\nFormat settings, ReFrames                : 4 frames\r\nCodec ID                                 : avc1\r\nCodec ID/Info                            : Advanced Video Coding\r\nDuration                                 : 31mn 58s\r\nBit rate                                 : 864 Kbps\r\nWidth                                    : 720 pixels\r\nHeight                                   : 540 pixels\r\nDisplay aspect ratio                     : 4:3\r\nFrame rate mode                          : Constant\r\nFrame rate                               : 29.970 fps\r\nColor space                              : YUV\r\nChroma subsampling                       : 4:2:0\r\nBit depth                                : 8 bits\r\nScan type                                : Progressive\r\nBits/(Pixel*Frame)                       : 0.074\r\nStream size                              : 198 MiB (77%)\r\nWriting library                          : x264 core 148 r11 3b70645\r\nEncoded date                             : UTC 2016-07-25 07:30:57\r\nTagged date                              : UTC 2016-07-25 07:30:57\r\nColor primaries                          : BT.601 NTSC\r\nTransfer characteristics                 : BT.470 System B, BT.470 System G\r\nMatrix coefficients                      : BT.601\r\n\r\nAudio\r\nID                                       : 2\r\nFormat                                   : AAC\r\nFormat/Info                              : Advanced Audio Codec\r\nFormat profile                           : LC\r\nCodec ID                                 : 40\r\nDuration                                 : 31mn 58s\r\nBit rate mode                            : Variable\r\nBit rate                                 : 256 Kbps\r\nChannel(s)                               : 2 channels\r\nChannel positions                        : Front: L R\r\nSampling rate                            : 48.0 KHz\r\nCompression mode                         : Lossy\r\nStream size                              : 58.5 MiB (23%)\r\nEncoded date                             : UTC 2016-07-25 07:30:57\r\nTagged date                              : UTC 2016-07-25 07:30:57","torrent":{"xt":"urn:btih:e94c6997250ee0b85c2913aa778c5c5c2e6a02cf","amp;dn":"Which+Peter+Will+You+Choose+To+Be%3F+","amp;tr":["udp%3A%2F%2Ftracker.leechers-paradise.org%3A6969","udp%3A%2F%2Fzer0day.ch%3A1337","udp%3A%2F%2Fopen.demonii.com%3A1337","udp%3A%2F%2Ftracker.coppersurfer.tk%3A6969","udp%3A%2F%2Fexodus.desync.com%3A6969"],"infoHash":"e94c6997250ee0b85c2913aa778c5c5c2e6a02cf","infoHashBuffer":{"type":"Buffer","data":[233,76,105,151,37,14,224,184,92,41,19,170,119,140,92,92,46,106,2,207]},"announce":[],"urlList":[]}}